<?xml version="1.0" encoding="utf-8"?>
<svg xmlns="http://www.w3.org/2000/svg" viewBox="593.4445 -34.0897 64 64" width="64px" height="64px"><g id="group-9" transform="matrix(1.713796019554138, 0, 0, 1.713796019554138, 443.3296401797065, -248.43239941145725)" style=""><rect x="87.592" y="125.069" width="37.344" height="37.344" style="stroke-width: 1;" rx="67.378" ry="67.378"/><path id="path-8" style="fill-opacity: 1; stroke-width: 1; fill: rgb(242, 242, 242);" d="M 106.264 130.263 C 104.414 130.263 102.794 131.504 102.311 133.29 C 102.264 133.267 102.217 133.246 102.169 133.225 C 101.761 133.048 101.331 132.927 100.89 132.867 C 100.89 132.867 100.89 132.867 100.89 132.867 C 100.669 132.837 100.447 132.821 100.225 132.821 C 100.21 132.822 100.195 132.823 100.181 132.824 C 99.769 132.827 99.359 132.882 98.962 132.988 C 98.756 133.043 98.554 133.111 98.358 133.193 C 98.357 133.193 98.357 133.193 98.357 133.193 C 98.161 133.274 97.969 133.369 97.785 133.475 C 97.785 133.475 97.785 133.475 97.785 133.475 C 97.6 133.582 97.423 133.7 97.254 133.83 C 97.254 133.83 97.254 133.83 97.254 133.83 C 96.915 134.09 96.613 134.393 96.353 134.731 C 96.353 134.731 96.353 134.731 96.353 134.731 C 96.223 134.9 96.105 135.077 95.998 135.262 C 95.998 135.262 95.998 135.262 95.998 135.262 C 95.892 135.446 95.797 135.638 95.716 135.834 C 95.716 135.834 95.716 135.835 95.716 135.835 C 95.634 136.031 95.566 136.233 95.511 136.439 C 95.4 136.851 95.344 137.276 95.344 137.702 C 95.344 138.371 95.482 139.033 95.748 139.646 C 95.748 139.646 95.748 139.646 95.748 139.646 C 95.769 139.694 95.79 139.741 95.812 139.788 C 94.026 140.271 92.786 141.891 92.786 143.742 C 92.786 145.592 94.026 147.212 95.812 147.695 C 95.79 147.742 95.769 147.789 95.748 147.836 C 95.748 147.836 95.748 147.836 95.748 147.836 C 95.482 148.45 95.344 149.112 95.344 149.781 C 95.344 150.207 95.4 150.632 95.511 151.044 C 95.732 151.871 96.168 152.626 96.774 153.232 C 96.924 153.383 97.085 153.523 97.254 153.653 C 97.254 153.653 97.254 153.653 97.254 153.653 C 97.592 153.913 97.963 154.127 98.357 154.29 C 98.357 154.29 98.357 154.29 98.357 154.29 C 98.554 154.372 98.756 154.44 98.962 154.495 C 99.168 154.55 99.377 154.592 99.588 154.62 C 99.588 154.62 99.588 154.62 99.588 154.62 C 99.8 154.648 100.012 154.661 100.225 154.661 C 100.67 154.661 101.113 154.601 101.542 154.481 C 101.756 154.421 101.965 154.346 102.169 154.258 C 102.217 154.237 102.264 154.215 102.311 154.193 C 102.794 155.979 104.414 157.22 106.264 157.22 C 108.114 157.22 109.735 155.979 110.217 154.193 C 110.264 154.215 110.311 154.237 110.359 154.258 C 110.563 154.346 110.773 154.421 110.987 154.481 C 110.987 154.481 110.987 154.481 110.987 154.481 C 111.415 154.601 111.858 154.661 112.303 154.661 C 112.503 154.661 112.701 154.648 112.899 154.622 C 113.124 154.596 113.347 154.553 113.567 154.495 C 114.101 154.348 114.607 154.112 115.062 153.795 C 115.287 153.642 115.499 153.471 115.696 153.284 C 115.715 153.266 115.735 153.249 115.755 153.232 C 115.755 153.232 115.755 153.232 115.755 153.232 C 115.963 153.019 116.152 152.787 116.318 152.539 C 116.513 152.26 116.679 151.962 116.813 151.648 C 116.894 151.452 116.963 151.25 117.018 151.044 C 117.128 150.632 117.184 150.207 117.184 149.781 C 117.184 149.781 117.184 149.78 117.184 149.78 C 117.183 149.577 117.169 149.375 117.143 149.174 C 117.133 149.108 117.122 149.042 117.11 148.977 C 117.088 148.84 117.059 148.703 117.025 148.568 C 117.007 148.497 116.986 148.425 116.965 148.354 C 116.924 148.224 116.878 148.095 116.827 147.968 C 116.793 147.876 116.756 147.785 116.716 147.695 C 118.502 147.212 119.742 145.592 119.742 143.742 C 119.742 141.891 118.502 140.271 116.716 139.788 C 116.756 139.699 116.792 139.609 116.826 139.517 C 116.878 139.389 116.924 139.259 116.965 139.128 C 116.986 139.057 117.007 138.987 117.025 138.915 C 117.059 138.78 117.088 138.643 117.11 138.505 C 117.123 138.44 117.133 138.375 117.143 138.31 C 117.169 138.108 117.183 137.905 117.184 137.702 C 117.184 137.702 117.184 137.702 117.184 137.702 C 117.184 137.061 117.058 136.427 116.813 135.835 C 116.813 135.835 116.813 135.834 116.813 135.834 C 116.567 135.242 116.208 134.704 115.755 134.251 C 115.453 133.949 115.113 133.689 114.744 133.475 C 114.559 133.369 114.368 133.275 114.171 133.193 C 113.579 132.948 112.944 132.821 112.303 132.821 C 112.303 132.821 112.303 132.821 112.303 132.821 C 112.035 132.824 111.768 132.849 111.504 132.895 C 111.329 132.922 111.157 132.957 110.987 133.002 C 110.773 133.062 110.563 133.137 110.359 133.225 C 110.311 133.246 110.264 133.267 110.217 133.29 C 109.735 131.504 108.114 130.263 106.264 130.263 Z"/><rect style="fill-opacity: 1; stroke-width: 0.958;" id="rect-15" width="3.758" height="5.956" x="110.665" y="138.812" ry="13.66"/><rect style="fill-opacity: 1; stroke-width: 0.958;" id="rect-16" width="3.758" height="5.956" x="104.498" y="138.812" ry="13.66"/></g></svg>