<?xml version="1.0" encoding="utf-8"?>
<svg xmlns="http://www.w3.org/2000/svg" viewBox="526.6201 183.8049 63.9995 64.0005" width="63.9995px" height="64.0005px"><g id="object-0" transform="matrix(1.0172690153121948, 0, 0, 1.0172690153121948, 31.705535888671868, 5.378979921340942)"><path id="path-8" style="fill-opacity: 1; stroke-width: 1; fill: rgb(13, 16, 26);" d="M 517.97 175.397 C 513.652 175.397 509.871 178.293 508.744 182.462 C 508.634 182.408 508.524 182.359 508.412 182.31 C 507.46 181.897 506.456 181.614 505.427 181.474 C 505.427 181.474 505.427 181.474 505.427 181.474 C 504.911 181.404 504.393 181.367 503.875 181.367 C 503.84 181.369 503.805 181.372 503.772 181.374 C 502.811 181.381 501.854 181.509 500.927 181.757 C 500.447 181.885 499.975 182.044 499.518 182.235 C 499.515 182.235 499.515 182.235 499.515 182.235 C 499.058 182.424 498.61 182.646 498.18 182.893 C 498.18 182.893 498.18 182.893 498.18 182.893 C 497.749 183.143 497.335 183.418 496.941 183.722 C 496.941 183.722 496.941 183.722 496.941 183.722 C 496.15 184.329 495.445 185.036 494.838 185.825 C 494.838 185.825 494.838 185.825 494.838 185.825 C 494.535 186.219 494.259 186.632 494.01 187.064 C 494.01 187.064 494.01 187.064 494.01 187.064 C 493.762 187.493 493.54 187.941 493.351 188.399 C 493.351 188.399 493.351 188.401 493.351 188.401 C 493.16 188.859 493.001 189.33 492.873 189.811 C 492.614 190.772 492.483 191.764 492.483 192.758 C 492.483 194.32 492.805 195.865 493.426 197.295 C 493.426 197.295 493.426 197.295 493.426 197.295 C 493.475 197.408 493.524 197.517 493.575 197.627 C 489.407 198.754 486.513 202.535 486.513 206.855 C 486.513 211.173 489.407 214.953 493.575 216.081 C 493.524 216.19 493.475 216.3 493.426 216.41 C 493.426 216.41 493.426 216.41 493.426 216.41 C 492.805 217.843 492.483 219.388 492.483 220.949 C 492.483 221.943 492.614 222.935 492.873 223.897 C 493.389 225.827 494.406 227.589 495.821 229.003 C 496.171 229.356 496.547 229.682 496.941 229.986 C 496.941 229.986 496.941 229.986 496.941 229.986 C 497.73 230.592 498.596 231.092 499.515 231.472 C 499.515 231.472 499.515 231.472 499.515 231.472 C 499.975 231.664 500.447 231.822 500.927 231.951 C 501.408 232.079 501.896 232.177 502.388 232.243 C 502.388 232.243 502.388 232.243 502.388 232.243 C 502.883 232.308 503.378 232.338 503.875 232.338 C 504.914 232.338 505.948 232.198 506.949 231.918 C 507.448 231.778 507.936 231.603 508.412 231.398 C 508.524 231.349 508.634 231.297 508.744 231.246 C 509.871 235.414 513.652 238.311 517.97 238.311 C 522.288 238.311 526.071 235.414 527.196 231.246 C 527.305 231.297 527.415 231.349 527.527 231.398 C 528.003 231.603 528.493 231.778 528.993 231.918 C 528.993 231.918 528.993 231.918 528.993 231.918 C 529.992 232.198 531.026 232.338 532.064 232.338 C 532.531 232.338 532.993 232.308 533.455 232.247 C 533.981 232.187 534.501 232.086 535.014 231.951 C 536.261 231.608 537.442 231.057 538.504 230.317 C 539.029 229.96 539.524 229.561 539.983 229.125 C 540.028 229.082 540.074 229.043 540.121 229.003 C 540.121 229.003 540.121 229.003 540.121 229.003 C 540.607 228.506 541.048 227.965 541.435 227.386 C 541.89 226.735 542.278 226.039 542.59 225.306 C 542.779 224.849 542.94 224.377 543.069 223.897 C 543.326 222.935 543.456 221.943 543.456 220.949 C 543.456 220.949 543.456 220.947 543.456 220.947 C 543.454 220.473 543.421 220.001 543.361 219.532 C 543.337 219.378 543.312 219.224 543.284 219.073 C 543.232 218.753 543.165 218.433 543.085 218.118 C 543.043 217.952 542.994 217.784 542.945 217.619 C 542.849 217.315 542.742 217.014 542.623 216.718 C 542.544 216.503 542.457 216.291 542.364 216.081 C 546.532 214.953 549.426 211.173 549.426 206.855 C 549.426 202.535 546.532 198.754 542.364 197.627 C 542.457 197.419 542.541 197.209 542.621 196.994 C 542.742 196.696 542.849 196.392 542.945 196.087 C 542.994 195.921 543.043 195.757 543.085 195.589 C 543.165 195.274 543.232 194.955 543.284 194.633 C 543.314 194.481 543.337 194.329 543.361 194.177 C 543.421 193.706 543.454 193.232 543.456 192.758 C 543.456 192.758 543.456 192.758 543.456 192.758 C 543.456 191.262 543.162 189.783 542.59 188.401 C 542.59 188.401 542.59 188.399 542.59 188.399 C 542.016 187.017 541.178 185.762 540.121 184.704 C 539.416 184 538.623 183.393 537.761 182.893 C 537.33 182.646 536.884 182.427 536.424 182.235 C 535.042 181.663 533.56 181.367 532.064 181.367 C 532.064 181.367 532.064 181.367 532.064 181.367 C 531.439 181.374 530.816 181.432 530.2 181.54 C 529.791 181.603 529.39 181.684 528.993 181.789 C 528.493 181.929 528.003 182.104 527.527 182.31 C 527.415 182.359 527.305 182.408 527.196 182.462 C 526.071 178.293 522.288 175.397 517.97 175.397 Z"/><rect style="fill-opacity: 1; stroke-width: 0.958; fill: rgb(242, 242, 242);" id="rect-15" width="8.771" height="13.9" x="528.241" y="195.349" ry="13.66"/><rect style="fill-opacity: 1; stroke-width: 0.958; fill: rgb(242, 242, 242);" id="rect-16" width="8.771" height="13.9" x="513.848" y="195.349" ry="13.66"/></g></svg>